<svg id="Group_1977" data-name="Group 1977" xmlns="http://www.w3.org/2000/svg" xmlns:xlink="http://www.w3.org/1999/xlink" width="318.08" height="82.362" viewBox="65 105 447 1">
  <defs>
    <clipPath id="clip-path">
      <rect id="Rectangle_2190" data-name="Rectangle 2190" width="318.08" height="82.362" fill="none"/>
    </clipPath>
  </defs>
  <g id="KS__x26__rule">
	<g>
		<path style="fill:#FFC629;" d="M99.9,99.9l-5.1-0.8c-3.7-0.7-7.5-2.2-7.5-3.5v-6.4c0-2.5,21.4-2.3,36.1-2.3l6.3-7.6    c-1.9,0-3.8,0-5.8,0H79.1l2,3.5c-1.9,1-2.8,2.2-2.8,3.6v12.6c0,2.8,4.6,5.4,14.7,7.5l6.9,1.1V99.9z"/>
		<path style="fill:#FFC629;" d="M147.8,87.3c5.3,0.3,9.3,0.9,9.3,1.9v5.9h8.9v-8.8c0-2.5-4.6-4.4-12.8-5.5L147.8,87.3z"/>
		<path style="fill:#FFC629;" d="M130.8,108l4.1,5l14.8,2.3c3.6,0.7,7.5,2.2,7.5,3.5v5.5c0,1.3-4.6,2-11,2.4l5.7,6.9    c9.2-1.1,14.3-3,14.3-5.8v-11.2c0-2.3-0.3-3-0.5-3.4c-1.3-2.3-4.3-3.2-17.5-6l-14.9-2.3L130.8,108z"/>
		<path style="fill:#FFC629;" d="M87.3,125v-5.2h-9v8.1c0,4.8,19.4,7.1,45.6,7.1c1.4,0,2.8,0,4.2,0l-6.3-7.7    C113.4,127.4,87.3,127.4,87.3,125"/>
		<path style="fill:#FFC629;" d="M162,62.4h-19l2.7,5.1l-30.8,37.5V91.6c-3.3,0-6.7,0-10,0.1v30.7c3.3,0.1,6.7,0.1,10,0.1v-11.4    l30.8,37.6l-2.6,4.9h18.8L124.5,108L162,62.4z"/>
		<polygon style="fill:#FFC629;" points="104.8,74.3 114.8,74.3 114.8,62.4 101.5,62.4 104.8,68.7   "/>
		<path style="fill:#FFC629;" d="M104.8,147.3l-3.3,6.3h13.4v-13.8c-3.3-0.1-6.7-0.2-10-0.4V147.3z"/>
		<path d="M171,128v-11.2c0-2.1-0.3-4.5-1.1-5.8c-2.8-4.6-8.9-5.7-13.7-6.8c-2-0.5-9.9-1.8-19.5-3.4L144,92c2.9,0.2,5.7,0.4,8.3,0.8    v7.2h18.6V86.2c0.1-6.1-6.9-8.3-11.6-9.4c-0.7-0.2-1.5-0.3-2.4-0.5l15.5-18.8H135c1,1.9,4.9,9.3,4.9,9.3l-6.3,7.7    c-4.6-0.1-9-0.2-12.5-0.2h-1.3V57.5H93.4l6.5,12.4v4.4H70.8l4.1,7.3c-0.9,1.3-1.5,3-1.5,4.6v12.6c-0.1,8.5,12.3,10.9,18.6,12.2    c2.6,0.4,5.3,0.9,7.9,1.3v9.8c-2.6-0.1-5.2-0.4-7.7-0.7V115H73.5v13c-0.1,8.7,13.8,9.8,20,10.5c2.2,0.3,4.3,0.5,6.5,0.6v7    l-6.5,12.4h26.3v-18.7c1.1,0,2.2,0,3.4,0c3,0,6,0,9-0.1l7.7,9.5l-4.9,9.2h37.2l-16.6-20.3C162.2,137.2,171,135.1,171,128     M148.1,107.4c13.3,2.7,16.2,3.7,17.5,6c0.2,0.3,0.5,1.1,0.5,3.4V128c0,2.7-5.1,4.6-14.3,5.8l-5.7-6.9c6.4-0.4,11-1.2,11-2.4v-5.5    c0-1.4-4-2.8-7.5-3.5l-14.8-2.3l-4.1-5l2.4-2.9L148.1,107.4z M142.5,122.4l-3.2-3.9c3.1,0.5,6.3,1,9.4,1.5    c1.2,0.2,2.5,0.5,3.5,0.8v0.7C149,122,145.8,122.2,142.5,122.4 M166,86.2v8.8h-8.9v-5.9c0-1-4-1.5-9.3-1.9l5.4-6.6    C161.4,81.9,166,83.7,166,86.2 M114.8,62.4v12h-10v-5.6l-3.3-6.3H114.8z M93,106.3c-10.1-2.1-14.7-4.7-14.7-7.5V86.3    c0-1.4,0.9-2.6,2.8-3.6l-2-3.5h44.7c2,0,3.9,0,5.8,0l-6.3,7.6c-14.7,0-36.1-0.2-36.1,2.3v6.4c0,1.4,3.8,2.8,7.5,3.5l5.1,0.8v7.6    L93,106.3z M99.9,91.9v3.1c-0.8-0.1-1.5-0.2-2.1-0.3c-0.7-0.1-4.7-1-5.7-1.3v-0.8C94.7,92.3,97.3,92,99.9,91.9 M114.8,153.6h-13.4    l3.3-6.3v-7.9c3.3,0.2,6.7,0.3,10,0.4V153.6z M123.9,135c-26.2,0-45.6-2.3-45.6-7.1v-8.1h9v5.2c0,2.3,26.1,2.3,34.5,2.3l6.3,7.7    C126.7,135,125.3,135,123.9,135 M161.8,153.6H143l2.6-4.9l-30.8-37.6v11.4c-3.3,0-6.7,0-10-0.1V91.7c3.3-0.1,6.7-0.1,10-0.1v13.3    l30.8-37.5l-2.7-5.1h19L124.5,108L161.8,153.6z"/>
		<path style="fill:#B0B3B2;" d="M169.9,141c0-1.1-0.7-2.2-1.8-2.9c3.7-2.1,6.4-5.7,6.4-10.1v-11.2c0-6.2-2.7-10.8-8.4-13.3h8.3    V89.6c0-2,0.2-4.2-0.4-6.2c-1.4-5-6.3-7.7-11-9.1L179.4,54h-50.2c2.1,4.1,4.3,8.3,6.4,12.4l-3.8,4.6c-3.1-0.1-6.1-0.1-8.7-0.1V54    H87.6l8.8,16.8v0.1H64.8l6.1,10.8c-0.6,1.4-1,3-1,4.6v12.6c-0.1,6.3,5.1,10.4,10.4,12.6H70V128c-0.3,12.5,17.7,13.5,26.5,14.3v3    L87.6,162h35.6v-18.6c2.4,0,4.8,0,7.2,0l5.2,6.4l-6.5,12.3h50.3l-13.9-17C168.1,144.4,169.9,142.9,169.9,141 M172.1,158.5h-37.2    l4.9-9.2l-7.7-9.5c-3,0.1-6,0.1-9,0.1c-1.1,0-2.2,0-3.4,0v18.7H93.4l6.5-12.4v-7c-2.2-0.2-4.3-0.4-6.5-0.6    c-6.1-0.7-20-1.8-20-10.5v-13h18.7v6.6c2.6,0.3,5.1,0.5,7.7,0.7v-9.8c-2.6-0.4-5.3-0.9-7.9-1.3c-6.3-1.3-18.7-3.8-18.6-12.2V86.3    c0-1.6,0.6-3.3,1.5-4.6l-4.1-7.3h29.1v-4.4l-6.5-12.4h26.3v16.8h1.3c3.5,0,7.9,0.1,12.5,0.2l6.3-7.7c0,0-3.8-7.4-4.9-9.3h37.3    l-15.5,18.8c0.9,0.2,1.7,0.3,2.4,0.5c4.8,1.1,11.7,3.4,11.6,9.4v13.7h-18.6v-7.2c-2.5-0.4-5.3-0.6-8.3-0.8l-7.3,8.8    c9.5,1.5,17.5,2.9,19.5,3.4c4.8,1.1,10.9,2.2,13.7,6.8c0.8,1.3,1.1,3.7,1.1,5.8V128c0,7.1-8.8,9.3-15.5,10.2L172.1,158.5z"/>
		<path style="fill:#B0B3B2;" d="M97.8,94.6c0.6,0.1,1.3,0.2,2.1,0.3v-3.1c-2.6,0.1-5.2,0.4-7.7,0.7v0.8    C93.1,93.7,97.1,94.5,97.8,94.6"/>
		<path style="fill:#B0B3B2;" d="M148.8,120c-3.1-0.5-6.3-1-9.4-1.5l3.2,3.9c3.2-0.1,6.5-0.4,9.7-0.9v-0.7    C151.3,120.4,150,120.2,148.8,120"/>
		<path d="M166.4,141.1c0,1.1-0.8,1.9-1.9,1.9c-1.1,0-1.9-0.8-1.9-1.9c0-1,0.9-1.9,1.9-1.9C165.6,139.2,166.4,140.1,166.4,141.1     M163.1,141.1c0,0.8,0.6,1.5,1.5,1.5c0.8,0,1.4-0.7,1.4-1.5c0-0.8-0.6-1.5-1.4-1.5C163.7,139.6,163.1,140.3,163.1,141.1     M164.2,142.1h-0.4v-1.9c0.2,0,0.4-0.1,0.7-0.1c0.4,0,0.5,0.1,0.6,0.1c0.1,0.1,0.2,0.2,0.2,0.4c0,0.2-0.2,0.4-0.4,0.4v0    c0.2,0.1,0.3,0.2,0.3,0.5c0.1,0.3,0.1,0.4,0.1,0.5H165c-0.1-0.1-0.1-0.2-0.1-0.5c0-0.2-0.1-0.3-0.4-0.3h-0.2V142.1z M164.2,141    h0.2c0.2,0,0.4-0.1,0.4-0.3c0-0.2-0.1-0.3-0.4-0.3c-0.1,0-0.2,0-0.2,0V141z"/>
	</g>
	<line style="fill:none;stroke:#FFC629;stroke-width:1.0839;stroke-miterlimit:10;" x1="188.4" y1="74.3" x2="188.4" y2="139.9"/>
</g>
<g id="text">
	<g>
		<g>
			<g>
				<g>
					<path d="M205.8,93.2l-3.1,3.2v5.8h-5.3V79.1h5.3v10.8L213,79.1h5.9l-9.6,10.3l10.1,12.8h-6.2L205.8,93.2z"/>
					<path d="M239.7,97.9v4.3h-17.9V79.1h17.5v4.3h-12.1v5h10.7v4.2h-10.7v5.3H239.7z"/>
					<path d="M265.2,79.1v23.1h-4.4l-11.5-14v14H244V79.1h4.4l11.5,14v-14H265.2z"/>
					<path d="M292.7,79.1v23.1h-4.4l-11.5-14v14h-5.3V79.1h4.4l11.5,14v-14H292.7z"/>
					<path d="M316.8,97.9v4.3H299V79.1h17.5v4.3h-12.1v5H315v4.2h-10.7v5.3H316.8z"/>
					<path d="M319.3,100l1.8-4c1.9,1.4,4.9,2.4,7.6,2.4c3.2,0,4.5-1.1,4.5-2.5c0-4.3-13.4-1.4-13.4-9.9c0-3.9,3.2-7.2,9.7-7.2       c2.9,0,5.9,0.7,8,2l-1.7,4.1c-2.1-1.2-4.4-1.8-6.4-1.8c-3.2,0-4.4,1.2-4.4,2.6c0,4.3,13.4,1.3,13.4,9.8c0,3.9-3.2,7.2-9.8,7.2       C325,102.6,321.3,101.5,319.3,100z"/>
					<path d="M357.2,97.3h-10.7l-2,5H339l10.3-23.1h5.3l10.3,23.1h-5.6L357.2,97.3z M355.5,93.2l-3.7-8.8l-3.7,8.8H355.5z"/>
					<path d="M399.5,79.1l-7.6,23.1h-5.7l-5.1-15.6l-5.2,15.6h-5.7l-7.6-23.1h5.5l5.2,16.2l5.4-16.2h5l5.3,16.4l5.4-16.4H399.5z"/>
					<path d="M410.5,100l1.8-4c1.9,1.4,4.9,2.4,7.6,2.4c3.2,0,4.5-1.1,4.5-2.5c0-4.3-13.4-1.4-13.4-9.9c0-3.9,3.2-7.2,9.7-7.2       c2.9,0,5.9,0.7,8,2l-1.7,4.1c-2.1-1.2-4.4-1.8-6.4-1.8c-3.2,0-4.4,1.2-4.4,2.6c0,4.3,13.4,1.3,13.4,9.8c0,3.9-3.2,7.2-9.8,7.2       C416.2,102.6,412.5,101.5,410.5,100z"/>
					<path d="M437.7,83.5h-7.4v-4.4h20.1v4.4H443v18.7h-5.3V83.5z"/>
					<path d="M465.5,97.3h-10.7l-2,5h-5.5l10.3-23.1h5.3l10.3,23.1h-5.6L465.5,97.3z M463.9,93.2l-3.7-8.8l-3.7,8.8H463.9z"/>
					<path d="M477.5,83.5h-7.4v-4.4h20.1v4.4h-7.4v18.7h-5.3V83.5z"/>
					<path d="M511.1,97.9v4.3h-17.9V79.1h17.5v4.3h-12.1v5h10.7v4.2h-10.7v5.3H511.1z"/>
				</g>
				<g>
					<path d="M197.5,125.1v-13.2h2.4V125c0,5.5,2.6,8,7.1,8c4.5,0,7.1-2.5,7.1-8v-13.1h2.4v13.2c0,6.6-3.6,10.1-9.5,10.1       S197.5,131.7,197.5,125.1z"/>
					<path d="M255.9,111.8v23.1h-2l-14.9-18.7v18.7h-2.4v-23.1h2l14.9,18.7v-18.7H255.9z"/>
					<path d="M276.3,111.8h2.4v23.1h-2.4V111.8z"/>
					<path d="M318.2,111.8L308,134.9h-2.4l-10.2-23.1h2.6l8.8,20.1l8.9-20.1H318.2z"/>
					<path d="M351.2,132.8v2.1h-16.3v-23.1h15.8v2.1h-13.4v8.2h11.9v2.1h-11.9v8.6H351.2z"/>
					<path d="M385.5,134.9l-5.3-7.4c-0.6,0.1-1.2,0.1-1.8,0.1h-6.2v7.3h-2.4v-23.1h8.6c5.9,0,9.4,3,9.4,7.9c0,3.6-1.9,6.2-5.3,7.3       l5.6,7.9H385.5z M385.4,119.7c0-3.7-2.4-5.8-7.1-5.8h-6.1v11.6h6.1C382.9,125.5,385.4,123.4,385.4,119.7z"/>
					<path d="M404.2,132.1l1-1.9c1.6,1.6,4.6,2.8,7.6,2.8c4.3,0,6.2-1.8,6.2-4.1c0-6.3-14.2-2.4-14.2-11c0-3.4,2.6-6.3,8.5-6.3       c2.6,0,5.3,0.8,7.2,2l-0.8,1.9c-2-1.3-4.3-1.9-6.3-1.9c-4.2,0-6.1,1.9-6.1,4.2c0,6.3,14.2,2.5,14.2,10.9c0,3.4-2.7,6.3-8.6,6.3       C409.3,135.1,405.9,133.9,404.2,132.1z"/>
					<path d="M439.5,111.8h2.4v23.1h-2.4V111.8z"/>
					<path d="M466.8,113.9h-8.1v-2.1h18.7v2.1h-8.1v21h-2.4V113.9z"/>
					<path d="M501.9,126.9v8h-2.4v-8l-9.2-15.1h2.6l7.9,13l7.9-13h2.4L501.9,126.9z"/>
				</g>
			</g>
		</g>
	</g>
</g>
</svg>